<svg width="47" height="48" viewBox="0 0 47 48" fill="none" xmlns="http://www.w3.org/2000/svg">
<path d="M21.2593 18.459L12.7746 1.92255H19.0949L31.5621 18.459M21.2593 18.459H31.5621M21.2593 18.459H12.3818M21.2593 18.459H12.7746M31.5621 18.459C41.536 18.459 44.7798 22.0376 45.1549 23.8269M45.1549 23.8269C31.3601 24.0289 3.52809 24.3117 2.55841 23.8269M45.1549 23.8269C44.7798 25.7604 41.536 29.6103 31.5621 29.541M12.7746 18.459H12.3818M12.7746 18.459C12.6524 18.459 12.5211 18.4609 12.3818 18.459M1 18.459V8.76223H5.15576C5.58865 9.59915 6.85269 12.0868 8.44573 15.3422C9.85134 18.2145 11.3378 18.4446 12.3818 18.459M1 18.459C1.11544 20.0463 1.58873 23.342 2.55841 23.8269M1 18.459H12.3818M2.55841 23.8269C4.91334 28.1211 9.2538 29.4256 11.1297 29.541H21.2593M31.5621 29.541C21.5883 29.4718 20.5378 29.5122 21.2593 29.541M31.5621 29.541L19.0949 46.0775H12.7746L21.2593 29.541" stroke="#729E65" stroke-width="2"/>
</svg>
